<?xml version="1.0" standalone="no"?>
<!DOCTYPE svg PUBLIC "-//W3C//DTD SVG 20010904//EN"
 "http://www.w3.org/TR/2001/REC-SVG-20010904/DTD/svg10.dtd">
<svg version="1.0" xmlns="http://www.w3.org/2000/svg"
 width="347.000000pt" height="347.000000pt" viewBox="0 0 347.000000 347.000000"
 preserveAspectRatio="xMidYMid meet">
<metadata>
Created by potrace 1.11, written by Peter Selinger 2001-2013
</metadata>
<g transform="translate(0.000000,347.000000) scale(0.100000,-0.100000)"
fill="#000000" stroke="none">
<path d="M1500 3454 c-171 -26 -201 -34 -196 -53 3 -9 14 -52 26 -96 12 -44
23 -87 26 -96 4 -14 -15 -23 -89 -48 -174 -57 -381 -175 -501 -286 -27 -25
-50 -45 -51 -45 -1 0 -39 37 -84 81 l-83 81 -35 -33 c-96 -92 -218 -265 -293
-417 -54 -108 -113 -273 -102 -283 4 -3 54 -19 112 -34 58 -15 106 -29 107
-30 1 0 -2 -18 -8 -39 -7 -26 -7 -41 -1 -45 6 -3 65 -6 132 -6 l123 1 27 80
c118 347 396 621 750 737 117 39 223 55 365 55 145 0 251 -16 370 -54 357
-117 629 -383 753 -739 l28 -79 119 -1 c132 -1 145 1 140 18 -20 66 -23 62 93
92 59 15 110 31 114 34 13 11 -51 182 -112 306 -33 66 -88 159 -123 207 -63
88 -174 218 -186 218 -4 0 -44 -36 -89 -80 -65 -63 -84 -77 -94 -67 -156 147
-383 282 -563 333 -36 10 -65 23 -65 29 0 5 13 55 29 110 l29 100 -27 11
c-100 45 -459 66 -641 38z"/>
<path d="M1648 2855 c-2 -1 -30 -5 -63 -9 -140 -14 -334 -91 -464 -183 -139
-99 -265 -252 -336 -407 -42 -91 -52 -136 -32 -136 8 0 18 12 21 26 12 46 48
117 91 179 185 263 531 373 843 269 105 -36 186 -88 278 -179 81 -80 97 -103
140 -193 l49 -101 54 -1 c53 0 53 0 46 27 -11 46 -74 165 -117 222 -121 161
-308 277 -492 306 -63 11 -78 14 -84 20 -3 3 12 3 34 0 21 -3 57 -8 79 -11
162 -23 341 -118 461 -245 66 -71 106 -131 156 -234 l40 -85 60 0 c68 0 67 -6
21 105 -141 337 -500 554 -882 532 -58 -4 -117 -10 -131 -13 -14 -4 -22 -4
-19 0 3 3 30 11 60 16 30 6 65 12 79 15 14 3 63 5 110 6 392 6 727 -205 894
-564 20 -42 36 -82 36 -87 0 -6 32 -10 74 -10 l74 0 -20 58 c-118 330 -415
585 -763 657 -68 14 -287 29 -297 20z"/>
<path d="M324 1941 c-2 -2 -4 -24 -4 -47 l0 -43 62 -3 63 -3 0 -120 1 -120 62
-3 62 -3 0 126 0 125 63 0 62 0 1 45 c0 25 -2 46 -5 46 -18 4 -363 4 -367 0z"/>
<path d="M747 1935 c-3 -5 -4 -83 -4 -172 l-1 -163 192 0 191 0 1 45 c1 25 -1
46 -5 46 -3 1 -60 2 -126 3 -99 1 -120 4 -123 17 -2 13 9 15 65 14 37 -1 74 0
81 3 7 2 12 22 12 48 l0 44 -80 0 c-64 0 -80 3 -80 15 0 12 23 15 128 17 l127
3 1 43 c0 23 -2 43 -5 43 -3 1 -88 2 -188 3 -116 1 -184 -2 -186 -9z"/>
<path d="M1190 1884 c0 -48 5 -67 22 -89 20 -25 20 -29 5 -40 -19 -14 -34 -76
-29 -123 l3 -33 62 3 61 3 1 59 0 60 68 1 c39 1 71 -3 75 -9 4 -6 7 -33 7 -61
l0 -50 63 -3 62 -3 0 60 c0 48 -5 65 -23 87 l-23 27 23 25 c19 20 23 36 23 86
l0 62 -62 -1 -63 0 -1 -50 c-1 -28 -2 -56 -3 -62 -1 -9 -23 -13 -76 -13 l-74
0 2 55 c2 30 1 59 -2 63 -4 4 -32 8 -63 8 l-58 0 0 -62z"/>
<path d="M1659 1930 c0 -8 -1 -85 -1 -170 l-1 -155 64 -3 64 -3 -1 101 c-1 55
1 100 3 100 3 0 24 -21 47 -47 l42 -46 39 46 c22 26 42 47 45 47 3 0 6 -44 6
-97 l0 -98 62 -3 62 -3 0 173 0 174 -61 -1 c-59 0 -62 -1 -108 -48 l-47 -48
-43 46 c-23 25 -47 46 -54 46 -7 1 -36 2 -64 3 -41 1 -53 -3 -54 -14z"/>
<path d="M2200 1928 c-39 -23 -44 -44 -45 -195 l-1 -133 62 0 63 0 3 63 3 62
90 0 90 0 0 -60 0 -60 63 -3 62 -3 1 36 c0 19 0 91 0 160 0 69 0 131 0 138 -1
9 -44 12 -182 12 -153 0 -186 -2 -209 -17z m268 -95 c3 -10 -20 -13 -92 -13
-80 0 -96 3 -96 15 0 13 15 15 92 13 62 -2 93 -7 96 -15z"/>
<path d="M2662 1941 c-4 -3 -8 -81 -8 -173 l0 -168 243 0 243 0 -2 173 -3 172
-60 0 -60 0 0 -123 c0 -76 -3 -122 -10 -123 -5 0 -18 -2 -27 -4 -16 -3 -18 8
-18 121 0 68 -3 124 -7 125 -75 7 -112 6 -115 -4 -3 -7 -4 -63 -3 -124 l1
-113 -28 0 -27 0 -3 122 -3 123 -52 1 c-29 0 -57 -2 -61 -5z"/>
<path d="M325 1332 c3 -18 8 -39 11 -46 3 -9 -28 -21 -103 -41 -59 -15 -111
-30 -115 -34 -12 -11 55 -190 115 -307 66 -129 157 -259 249 -358 l64 -70 83
82 83 82 37 -31 c166 -139 355 -248 529 -305 45 -14 82 -27 82 -28 0 0 -13
-50 -30 -110 -16 -61 -28 -111 -27 -112 4 -5 161 -35 215 -42 72 -9 351 -9
417 0 129 18 228 40 228 51 0 4 -13 55 -28 113 -15 57 -26 106 -24 109 3 2 16
6 29 9 148 29 429 186 564 314 l44 42 83 -80 c46 -44 87 -80 91 -80 15 0 151
167 215 263 36 55 85 140 108 190 51 107 107 269 97 278 -4 4 -55 19 -115 34
-93 24 -107 31 -102 47 3 10 8 27 11 38 4 15 0 20 -13 21 -21 1 -222 1 -240 0
-7 -1 -20 -27 -29 -58 -46 -160 -153 -333 -289 -468 -168 -169 -371 -276 -615
-326 -68 -14 -336 -19 -405 -7 -258 43 -474 154 -656 337 -136 137 -223 275
-280 446 -13 39 -25 72 -26 74 -2 3 -62 5 -134 5 l-130 1 6 -33z"/>
<path d="M747 1363 c-15 -14 -6 -42 56 -173 119 -248 383 -458 667 -530 459
-116 946 91 1172 500 36 65 80 180 75 194 -6 15 -130 11 -135 -4 -17 -49 -108
-217 -146 -267 -108 -142 -271 -264 -435 -323 -122 -44 -226 -60 -361 -55
-106 4 -244 26 -259 41 -3 3 8 3 24 0 17 -3 41 -9 55 -12 14 -3 70 -6 124 -8
310 -10 602 141 775 400 50 74 117 221 106 232 -3 4 -29 7 -58 7 l-52 0 -52
-103 c-28 -56 -68 -124 -89 -150 -104 -130 -245 -230 -400 -280 -100 -34 -179
-48 -169 -32 3 5 17 10 30 10 39 0 183 56 257 100 85 51 176 135 234 215 44
62 98 168 109 215 6 25 5 26 -46 24 l-52 -1 -42 -86 c-51 -105 -80 -144 -160
-222 -146 -141 -325 -208 -540 -200 -288 9 -527 171 -641 433 -35 81 -38 85
-47 75z m883 -567 c0 -9 -40 -13 -46 -5 -3 5 6 9 20 9 14 0 26 -2 26 -4z"/>
</g>
</svg>
